<?xml version="1.0" encoding="utf-8"?>
<!-- Generator: Adobe Illustrator 28.0.0, SVG Export Plug-In . SVG Version: 6.00 Build 0)  -->
<svg version="1.1" xmlns="http://www.w3.org/2000/svg" xmlns:xlink="http://www.w3.org/1999/xlink" x="0px" y="0px"
	 viewBox="0 0 256 256" style="enable-background:new 0 0 256 256;" xml:space="preserve">
<style type="text/css">
	.st0{fill:#0E6BA5;}
	.st1{fill:#999999;}
	.st2{fill:#1A1A1A;}
</style>
<g id="Шар_1">
	<g>
		<rect x="56.15" y="4.78" transform="matrix(0.866 -0.5 0.5 0.866 -1.9181 35.9663)" class="st0" width="20" height="33.57"/>
		<rect x="76.69" y="40.35" transform="matrix(0.866 -0.5 0.5 0.866 -16.9513 50.9994)" class="st0" width="20" height="33.57"/>
		<rect x="97.23" y="75.91" transform="matrix(0.866 -0.5 0.5 0.866 -31.9845 66.0326)" class="st0" width="20" height="33.57"/>
		<rect x="117.76" y="111.48" transform="matrix(0.866 -0.5 0.5 0.866 -47.0177 81.0658)" class="st0" width="20" height="33.57"/>
		<rect x="138.3" y="147.05" transform="matrix(0.866 -0.5 0.5 0.866 -62.0509 96.099)" class="st0" width="20" height="33.57"/>
		<rect x="158.83" y="182.62" transform="matrix(0.866 -0.5 0.5 0.866 -77.0841 111.1321)" class="st0" width="20" height="33.57"/>
		<rect x="179.37" y="218.19" transform="matrix(0.866 -0.5 0.5 0.866 -92.1172 126.1653)" class="st0" width="20" height="33.57"/>
	</g>
</g>
<g id="Шар_2">
	<path d="M215.35,222.28C215.34,222.28,215.34,222.28,215.35,222.28l-10.58-18.3L106.82,34.3l97.96,169.67L215.35,222.28z"/>
	<path d="M221.28,182.54c0,0.01,0,0.02-0.01,0.02L128.46,21.81l0.01-0.01L221.28,182.54z"/>
	<path class="st1" d="M204.78,203.97c0,0.01-0.01,0.01-0.01,0.01L106.82,34.3L204.78,203.97z"/>
	<path class="st1" d="M221.28,182.54c0,0.01,0,0.02-0.01,0.02L128.46,21.81l0.01-0.01L221.28,182.54z"/>
	<g>
		<path class="st2" d="M256.47,128.27c0,27.67-8.78,53.28-23.7,74.21c-5.12,7.18-10.96,13.82-17.42,19.8l-10.57-18.31L106.82,34.3
			l21.64-12.49l92.81,160.75c0.01,0,0.01-0.01,0.01-0.02c4.28-7.3,7.72-15.15,10.19-23.42c2.93-9.77,4.5-20.13,4.5-30.85
			c0-10.72-1.57-21.08-4.5-30.85c-13.25-44.34-54.35-76.65-103-76.65c-0.2,0-0.41,0-0.61,0.01L116.35,0.84
			c3.99-0.38,8.03-0.57,12.12-0.57c42.23,0,79.69,20.46,103,52C247.18,73.52,256.47,99.81,256.47,128.27z"/>
	</g>
	<g>
		<path class="st2" d="M221.28,182.54c0,0.01,0,0.02-0.01,0.02L128.46,21.81l0.01-0.01L221.28,182.54z"/>
	</g>
	<path class="st2" d="M129.36,235.76l11.5,19.91c-4.08,0.4-8.21,0.6-12.39,0.6c-42.23,0-79.69-20.46-103-52
		c-15.71-21.25-25-47.54-25-76c0-27.76,8.84-53.46,23.86-74.43c5.13-7.18,10.99-13.8,17.47-19.76l10.56,18.28v0.01l97.76,169.33
		l-21.65,12.5L35.82,73.73c-4.36,7.37-7.85,15.32-10.35,23.69c-2.93,9.77-4.5,20.13-4.5,30.85c0,10.72,1.57,21.08,4.5,30.85
		c13.25,44.34,54.35,76.65,103,76.65C128.77,235.77,129.06,235.77,129.36,235.76z"/>
</g>
</svg>
